# xmcd CD database file
#
# Track frame offsets:
#	150
#	21577
#	36558
#	53978
#	71337
#	87181
#	102444
#	119878
#	133165
#	146176
#	160973
#	178459
#
# Disc length: 2552 seconds
#
# Revision: 2
# Processed by: cddbd v1.5PL3 Copyright (c) Steve Scherf et al.
# Submitted via: CDex 1.51
#
DISCID=c309f60c
DTITLE=Varius Manx - Emi
DYEAR=2004
DGENRE=Pop
TTITLE0=PamiêTaj Mnie
TTITLE1=Stay In My Heart
TTITLE2=Zatañcz Ze Mn¹
TTITLE3=DziêKujê
TTITLE4=Czas Ukoi Nas
TTITLE5=Idê Dalej
TTITLE6=Bez Nich
TTITLE7=Happy People
TTITLE8=Be The One
TTITLE9=Wolni
TTITLE10=Broken Wings
TTITLE11=Sonny
EXTD=YEAR: 2004
EXTT0=
EXTT1=
EXTT2=
EXTT3=
EXTT4=
EXTT5=
EXTT6=
EXTT7=
EXTT8=
EXTT9=
EXTT10=
EXTT11=
PLAYORDER=
